<?xml version="1.0" standalone="no"?><!DOCTYPE svg PUBLIC "-//W3C//DTD SVG 1.1//EN" "http://www.w3.org/Graphics/SVG/1.1/DTD/svg11.dtd"><svg t="1724935884417" class="icon" viewBox="0 0 1024 1024" version="1.1" xmlns="http://www.w3.org/2000/svg" p-id="4258" xmlns:xlink="http://www.w3.org/1999/xlink" width="200" height="200"><path d="M776.332323 74.740525H246.172867a37.868533 37.868533 0 0 1-37.370263-37.370263 37.868533 37.868533 0 0 1 37.370263-37.370262H776.332323a37.868533 37.868533 0 0 1 37.370262 37.370262 37.868533 37.868533 0 0 1-37.370262 37.370263zM799.751021 697.578232H224.248979a37.370262 37.370262 0 0 1 0-74.740525h575.502042a37.370262 37.370262 0 0 1 0 74.740525z" fill="#1296db" p-id="4259"></path><path d="M577.024257 1023.94519H228.235141a149.48105 149.48105 0 0 1-126.560622-63.778581A129.550243 129.550243 0 0 1 88.719494 837.093878l199.308067-494.284004a230.200817 230.200817 0 0 0 16.941185-85.702469V37.370262A37.370262 37.370262 0 0 1 377.71619 37.370262v219.737143a312.415394 312.415394 0 0 1-22.422157 114.103868l-199.308066 493.785734a56.802799 56.802799 0 0 0 5.480972 53.314908 74.242255 74.242255 0 0 0 61.7855 30.89275H577.024257a37.370262 37.370262 0 0 1 0 74.740525z" fill="#1296db" p-id="4260"></path><path d="M798.75448 1023.94519H446.975743a37.370262 37.370262 0 0 1 0-74.740525h351.778737a72.747444 72.747444 0 0 0 61.287231-30.89275 55.307988 55.307988 0 0 0 5.979242-53.314908l-199.308067-493.785734a302.449991 302.449991 0 0 1-22.422157-114.103868V37.370262a37.370262 37.370262 0 0 1 74.740525 0v219.737143a230.200817 230.200817 0 0 0 16.941185 85.702469l199.308067 494.284004a129.550243 129.550243 0 0 1-12.955025 123.072731 149.48105 149.48105 0 0 1-123.571001 63.778581z" fill="#1296db" p-id="4261"></path></svg>